<?xml version="1.0" standalone="no"?>
<!DOCTYPE svg PUBLIC "-//W3C//DTD SVG 20010904//EN"
 "http://www.w3.org/TR/2001/REC-SVG-20010904/DTD/svg10.dtd">
<svg version="1.0" xmlns="http://www.w3.org/2000/svg"
 width="821.000000pt" height="821.000000pt" viewBox="0 0 821.000000 821.000000"
 preserveAspectRatio="xMidYMid meet">
<metadata>
Created by potrace 1.14, written by Peter Selinger 2001-2017
</metadata>
<g transform="translate(0.000000,821.000000) scale(0.100000,-0.100000)"
fill="#000000" stroke="none">
<path d="M680 6823 c1 -1650 3 -1704 89 -2148 187 -971 726 -2029 1530 -3005
378 -460 715 -802 1170 -1188 178 -151 614 -482 635 -482 20 0 434 312 601
452 1073 905 1926 2027 2405 3164 158 377 254 686 326 1054 89 456 88 423 91
2098 l4 1442 -3426 0 -3425 0 0 -1387z m3093 1079 c-109 -98 -163 -220 -163
-366 0 -143 45 -253 145 -353 196 -196 504 -196 700 0 100 100 145 210 145
353 0 146 -53 266 -163 368 -43 39 -46 45 -19 30 156 -88 270 -249 308 -434
74 -369 -206 -725 -587 -748 -288 -16 -561 178 -643 458 -74 250 25 532 243
688 40 28 76 52 80 52 3 0 -18 -22 -46 -48z m58 2 c-61 -70 -84 -140 -79 -245
3 -70 9 -96 33 -143 34 -67 92 -124 167 -163 48 -25 63 -28 153 -28 95 0 103
2 163 34 121 66 183 163 190 301 5 104 -18 174 -79 244 -60 68 -30 56 51 -20
282 -267 163 -722 -215 -819 -320 -82 -634 203 -586 533 16 114 64 203 151
286 81 76 111 88 51 20z m-526 -961 c-32 -215 -161 -453 -317 -584 -77 -66
-147 -113 -154 -106 -4 4 5 57 20 119 44 185 135 350 260 472 54 52 175 146
190 146 4 0 5 -21 1 -47z m1669 3 c196 -140 325 -334 382 -574 15 -62 24 -115
20 -119 -3 -3 -27 9 -54 27 -194 138 -323 315 -386 531 -27 96 -42 179 -31
179 4 0 35 -20 69 -44z m-2134 -397 c-22 -222 -102 -404 -253 -574 l-44 -50
-8 70 c-12 120 15 293 65 427 29 79 115 216 180 290 l55 62 8 -59 c4 -34 3
-105 -3 -166z m2694 22 c82 -135 118 -246 137 -411 6 -52 7 -126 4 -165 l-8
-70 -44 50 c-61 68 -146 198 -178 270 -59 134 -92 325 -79 460 l7 70 57 -63
c31 -34 78 -98 104 -141z m-1924 59 c0 -6 -42 -52 -92 -103 -109 -108 -201
-164 -328 -200 -98 -28 -190 -42 -190 -29 0 5 18 30 40 55 53 60 51 69 -5 18
-66 -60 -63 -50 4 17 31 31 67 70 79 86 12 16 25 26 29 22 4 -3 -11 -24 -32
-46 -55 -56 -34 -50 33 10 91 81 234 147 370 170 68 11 92 11 92 0z m1150 -20
c114 -28 228 -86 325 -166 l80 -67 -54 56 c-29 30 -52 60 -50 66 2 6 24 -14
49 -45 24 -31 69 -77 100 -104 61 -53 169 -130 181 -130 11 0 1 77 -22 169
-11 41 -17 76 -14 79 2 3 6 -1 8 -9 3 -8 14 -50 26 -94 40 -146 110 -269 226
-401 71 -81 73 -79 76 86 l2 115 8 -110 c12 -163 65 -329 147 -460 l31 -50 12
30 c6 17 19 59 28 95 l17 65 -4 -145 c-2 -83 1 -170 7 -204 6 -33 9 -61 7 -63
-2 -2 -13 27 -26 64 -36 108 -133 305 -206 416 -118 181 -256 335 -405 452
-41 32 -91 75 -111 94 -45 42 -49 30 -7 -19 l30 -35 -36 -3 c-48 -4 -184 31
-264 68 -114 54 -262 177 -302 251 -9 17 -6 19 23 19 18 0 71 -9 118 -20z
m-1906 -172 c-17 -49 -46 -209 -39 -216 2 -3 17 3 32 13 33 20 39 27 -91 -96
-65 -61 -74 -67 -51 -34 58 86 113 222 140 348 3 15 10 27 15 27 5 0 2 -19 -6
-42z m-395 -56 c66 -247 44 -475 -71 -707 -21 -44 -43 -84 -48 -89 -11 -11
-36 72 -55 183 -27 154 -14 322 35 468 24 69 100 223 111 223 4 0 16 -35 28
-78z m3369 -4 c103 -205 134 -401 97 -609 -19 -111 -44 -194 -55 -183 -16 17
-88 169 -109 233 -12 36 -29 112 -38 170 -13 88 -14 123 -5 210 12 105 48 261
61 261 4 0 26 -37 49 -82z m-2239 -37 c23 -6 22 -8 -32 -60 -71 -69 -135 -114
-220 -157 -123 -63 -123 -63 -70 16 25 39 44 73 41 75 -9 9 -154 -24 -232 -52
-83 -30 -163 -69 -226 -112 -108 -74 -44 4 83 100 138 105 303 170 474 188 97
10 151 11 182 2z m1201 -1 c187 -20 344 -81 487 -189 127 -96 191 -174 83
-100 -66 44 -156 89 -234 115 -79 27 -216 57 -224 49 -3 -2 16 -36 41 -75 53
-79 53 -79 -70 -16 -85 43 -149 88 -220 157 -54 52 -55 54 -32 60 35 10 63 10
169 -1z m-1810 -45 c-11 -13 -8 -15 15 -15 27 0 26 -2 -21 -37 -391 -294 -655
-763 -724 -1290 -20 -149 -8 -460 24 -611 138 -651 570 -1164 1179 -1399 119
-46 298 -90 424 -105 99 -11 103 -13 103 -36 0 -23 -1 -23 -67 -17 -38 4 -121
17 -185 30 -634 128 -1158 571 -1402 1185 -317 802 -65 1751 604 2274 47 36
71 47 50 21z m104 -33 c-124 -61 -352 -246 -317 -259 6 -2 -11 -25 -39 -51
-64 -59 -165 -194 -191 -252 -11 -25 -29 -58 -41 -75 -11 -16 -40 -66 -63
-110 -59 -112 -53 -85 11 50 125 264 312 495 534 663 68 52 100 65 171 71 8 0
-21 -16 -65 -37z m2153 -48 c45 -35 85 -69 89 -76 4 -6 -19 8 -50 32 -31 23
-89 60 -129 82 -67 37 -69 39 -32 33 27 -5 64 -26 122 -71z m134 -30 c408
-366 648 -906 649 -1457 0 -482 -181 -956 -502 -1318 -296 -332 -740 -565
-1178 -619 -112 -13 -110 -14 -110 14 0 21 5 24 67 30 202 21 416 83 608 176
1015 492 1375 1764 773 2734 -105 169 -261 345 -411 464 -67 53 -75 62 -53 62
14 0 26 5 26 11 0 14 40 -15 131 -97z m-2095 1 c-16 -43 -99 -149 -174 -223
-46 -46 -86 -82 -88 -79 -2 2 8 31 23 65 14 34 24 64 21 67 -8 8 -121 -34
-201 -75 -89 -45 -171 -104 -244 -175 -29 -28 -53 -49 -53 -46 0 4 29 45 65
92 140 188 318 307 540 365 108 28 119 29 111 9z m1765 -9 c225 -57 402 -176
544 -365 64 -85 89 -131 39 -72 -46 55 -183 157 -267 199 -88 44 -197 85 -205
77 -3 -3 7 -33 21 -67 15 -34 25 -63 23 -65 -2 -3 -42 33 -88 79 -101 100
-200 238 -170 238 5 0 52 -11 103 -24z m-2512 -275 c0 -3 12 6 25 18 14 13 -8
-26 -47 -87 -40 -60 -73 -109 -74 -108 -1 1 9 31 22 68 32 88 55 212 57 312 1
63 3 49 8 -59 4 -77 8 -142 9 -144z m-370 84 c52 -104 78 -180 96 -284 24
-136 16 -291 -21 -421 l-16 -54 -24 39 c-87 140 -138 285 -155 440 -11 94 -10
126 4 220 9 61 21 128 28 149 l11 40 19 -25 c10 -13 36 -60 58 -104z m1941
-220 c0 -268 -3 -346 -12 -349 -25 -7 -152 -25 -155 -22 -2 2 31 153 72 337
91 408 84 379 90 379 3 0 5 -155 5 -345z m99 -16 c44 -195 78 -355 77 -356 -1
-1 -19 2 -41 7 -22 5 -59 10 -82 10 l-43 0 0 352 c0 193 2 349 5 347 2 -3 40
-165 84 -360z m1955 261 c39 -191 26 -370 -37 -538 -42 -112 -118 -247 -129
-230 -42 68 -58 380 -25 512 24 94 70 208 119 290 46 79 49 78 72 -34z m-2534
18 c68 -41 96 -89 110 -188 13 -90 26 -111 95 -156 62 -39 81 -63 101 -130 10
-33 11 -58 5 -83 -5 -20 -12 -47 -15 -62 -4 -19 -19 -31 -62 -49 -52 -21 -60
-22 -83 -9 -14 8 -27 24 -29 34 -13 80 -36 129 -92 196 -68 81 -77 111 -61
202 19 108 14 186 -14 235 -13 23 -21 42 -16 42 4 0 31 -15 61 -32z m1038 -7
c15 -48 15 -121 1 -158 -5 -15 -26 -47 -46 -71 -55 -67 -66 -108 -47 -179 27
-101 -4 -181 -91 -239 l-54 -36 -61 23 c-51 20 -62 29 -69 54 -6 25 -3 36 21
66 36 45 58 116 58 186 0 70 19 113 66 151 22 17 64 51 94 75 57 45 100 106
100 145 0 35 16 26 28 -17z m961 -216 c38 -55 92 -145 120 -200 29 -55 46 -92
39 -81 -40 57 -88 139 -105 177 -26 58 -128 193 -191 251 -28 26 -45 49 -39
52 17 7 97 -84 176 -199z m-2579 191 c0 -2 -14 -35 -31 -72 -36 -82 -125 -217
-169 -259 l-32 -30 7 30 c4 17 11 46 16 65 5 19 9 38 9 43 0 18 -34 3 -118
-52 -102 -67 -218 -179 -277 -267 -21 -32 -40 -61 -42 -63 -2 -2 -5 -2 -8 1
-11 10 88 190 146 267 105 140 235 236 429 317 55 23 70 27 70 20z m2267 -51
c203 -95 344 -226 447 -415 75 -139 83 -189 11 -78 -72 112 -248 269 -358 319
-35 16 -40 9 -29 -37 6 -22 13 -52 17 -69 l7 -30 -32 30 c-44 41 -134 178
-170 258 -16 37 -30 69 -30 72 0 10 40 -5 137 -50z m-3039 -185 l0 -25 -8 25
c-4 14 -8 36 -8 50 l0 25 8 -25 c4 -14 8 -36 8 -50z m3683 9 c-6 -24 -9 -28
-10 -12 -1 24 9 56 16 50 2 -3 0 -20 -6 -38z m-3131 -15 c0 -59 -117 -359
-148 -378 -8 -4 -9 15 -5 64 7 85 1 87 -74 23 -87 -75 -179 -197 -239 -318
-57 -117 -67 -116 -33 5 63 227 203 420 401 554 80 53 98 63 98 50z m2667 -50
c198 -132 339 -326 402 -554 34 -121 24 -122 -34 -5 -60 121 -152 245 -238
318 -75 64 -81 62 -74 -23 4 -49 3 -68 -5 -64 -31 19 -148 319 -148 378 0 12
15 4 97 -50z m-3168 -129 l12 -29 21 32 c11 18 21 32 23 32 2 0 -11 -33 -29
-72 -19 -40 -43 -104 -56 -141 -12 -38 -23 -67 -25 -65 -2 2 1 28 7 58 6 30 8
120 6 200 l-4 145 17 -65 c9 -36 22 -78 28 -95z m1168 -64 l291 -185 -42 -29
c-22 -16 -52 -40 -66 -53 l-26 -24 -254 256 c-140 141 -241 247 -224 237 17
-10 161 -101 321 -202z m1332 -37 l-247 -247 -66 49 c-36 27 -66 51 -65 54 0
7 602 388 614 389 5 1 -101 -110 -236 -245z m-1236 -327 c-26 -36 -50 -66 -53
-66 -4 0 -278 431 -382 599 -11 19 93 -78 231 -216 l253 -251 -49 -66z m1390
396 c-58 -93 -147 -232 -196 -311 -50 -78 -93 -141 -97 -140 -5 2 -28 30 -53
63 l-46 60 247 248 c136 136 248 247 249 247 1 0 -45 -75 -104 -167z m-3015
59 c71 -89 156 -264 184 -377 17 -72 22 -120 22 -237 0 -89 -4 -152 -10 -158
-11 -11 -42 23 -111 125 -86 128 -136 265 -155 424 -11 93 -4 291 10 291 4 0
31 -31 60 -68z m4368 -162 c-5 -106 -27 -209 -65 -311 -41 -109 -185 -319
-204 -300 -7 7 -11 64 -11 159 0 117 5 165 22 236 36 144 121 310 211 410 l36
39 8 -64 c4 -35 6 -111 3 -169z m-3686 -125 c-7 -44 -23 -116 -38 -160 l-26
-80 -8 60 c-10 79 -17 105 -27 105 -4 0 -34 -35 -66 -77 -77 -103 -149 -255
-179 -379 -21 -87 -24 -94 -25 -54 0 25 4 77 9 115 33 228 123 409 284 569
l81 80 3 -50 c2 -27 -2 -85 -8 -129z m3087 10 c121 -151 196 -350 208 -547 l5
-93 -25 99 c-14 55 -47 145 -74 200 -45 95 -154 256 -173 256 -12 0 -17 -16
-26 -95 l-8 -70 -23 68 c-29 86 -50 204 -51 285 l0 63 51 -43 c28 -24 80 -79
116 -123z m-3523 -99 c14 -19 24 -41 21 -48 -3 -7 -14 -62 -24 -123 l-19 -110
-1 75 c-2 119 -20 207 -76 365 -3 11 11 -13 33 -52 21 -40 51 -88 66 -107z
m2061 148 c231 -55 425 -261 470 -497 25 -132 57 -118 -262 -115 l-278 3 -5
30 c-4 20 -8 26 -13 17 -5 -7 -5 -21 -2 -32 6 -19 2 -20 -69 -20 l-76 0 -1 33
-1 32 -9 -32 -10 -33 -269 0 -270 0 0 40 c0 69 20 142 65 235 133 276 425 411
730 339z m1815 -64 c-35 -104 -49 -188 -51 -300 l-1 -85 -10 60 c-5 33 -15 93
-23 132 l-15 73 38 53 c20 29 48 77 61 105 14 29 25 51 27 49 1 -1 -11 -40
-26 -87z m-3725 -18 c-18 -43 -36 -92 -40 -110 -4 -19 -9 -31 -12 -28 -3 2 9
54 27 115 22 76 36 108 45 105 9 -4 4 -25 -20 -82z m3513 6 c12 -39 21 -73 19
-74 -2 -2 -17 30 -34 71 -20 49 -26 75 -18 75 6 0 22 -32 33 -72z m-2882 12
c15 -6 54 -31 86 -55 71 -53 105 -61 179 -41 98 25 170 -5 233 -96 l39 -57
-25 -58 c-21 -48 -30 -59 -57 -66 -27 -7 -37 -4 -64 19 -48 40 -89 54 -180 61
-99 7 -132 24 -183 96 -77 107 -150 167 -206 167 -30 0 -12 16 32 28 47 14
113 14 146 2z m2406 -57 c-41 -79 -97 -113 -207 -128 -80 -11 -113 -32 -147
-93 -52 -91 -127 -124 -233 -101 l-66 14 -24 59 c-23 56 -23 61 -8 87 13 22
25 28 63 31 53 5 107 35 189 105 l55 46 85 -7 c47 -3 113 -9 146 -12 50 -4 68
-1 110 19 28 13 51 23 53 22 2 -2 -6 -20 -16 -42z m-3519 -152 c165 -157 265
-361 293 -596 l7 -59 -29 18 c-212 137 -383 426 -410 694 l-7 66 34 -25 c19
-13 69 -57 112 -98z m681 -86 c0 -88 -5 -178 -10 -200 l-10 -40 -22 70 c-32
102 -35 105 -66 53 -67 -114 -113 -263 -130 -423 l-13 -110 -8 69 c-14 120 0
300 30 401 30 104 96 233 163 322 44 57 48 60 57 40 5 -12 9 -94 9 -182z
m3259 -4 c73 -139 99 -239 104 -411 2 -80 0 -165 -5 -190 -8 -44 -9 -42 -16
45 -9 110 -38 232 -77 328 -34 83 -78 161 -86 153 -3 -3 -18 -40 -33 -83 l-27
-77 -13 86 c-13 86 -9 303 5 341 6 14 16 6 55 -44 27 -34 69 -101 93 -148z
m657 100 c-40 -236 -155 -439 -334 -592 -44 -38 -85 -69 -90 -69 -12 0 1 106
25 197 52 207 161 372 339 520 59 49 65 52 68 32 2 -11 -1 -51 -8 -88z m-573
77 c-3 -8 -6 -5 -6 6 -1 11 2 17 5 13 3 -3 4 -12 1 -19z m-3902 -185 l18 -28
-21 19 c-12 11 -22 23 -22 28 0 14 7 9 25 -19z m301 -5 c-30 -104 -50 -338
-28 -338 4 0 7 -58 8 -128 1 -114 0 -121 -9 -67 -12 76 -15 399 -4 488 6 50
12 67 24 67 11 0 14 -6 9 -22z m3646 -29 c3 -24 6 -62 6 -84 0 -36 -1 -35 -12
20 -7 33 -17 73 -21 89 -6 22 -5 28 6 24 8 -3 17 -25 21 -49z m288 37 c0 -2
-8 -10 -17 -17 -16 -13 -17 -12 -4 4 13 16 21 21 21 13z m-2773 -163 l-11 -83
-351 1 c-192 1 -343 3 -335 6 24 6 705 160 706 159 1 -1 -3 -38 -9 -83z
m-1358 12 c28 -36 56 -63 62 -60 5 4 9 -22 9 -62 0 -37 3 -93 5 -123 5 -49 3
-45 -19 39 -14 52 -45 134 -69 183 -23 48 -42 88 -42 88 1 0 25 -29 54 -65z
m3009 -10 c185 -42 342 -77 347 -79 6 -3 -149 -5 -342 -5 l-353 -1 0 48 c0 26
-4 62 -9 80 -8 26 -7 32 5 32 9 0 167 -34 352 -75z m1031 22 c-39 -72 -75
-171 -93 -253 l-14 -69 0 160 c1 88 3 147 5 130 3 -16 8 -34 13 -38 4 -5 32
21 61 57 29 36 54 66 55 66 1 0 -11 -24 -27 -53z m-3619 -107 c11 -41 22 -118
26 -170 l5 -95 -35 64 c-46 84 -51 88 -64 54 -43 -107 -56 -189 -57 -343 0
-85 3 -177 7 -205 7 -50 7 -50 -17 20 -80 222 -72 476 21 699 14 33 35 76 47
95 l21 34 13 -39 c8 -21 23 -73 33 -114z m3280 31 c96 -228 105 -482 25 -706
-24 -70 -24 -70 -17 -20 4 28 7 120 7 205 -1 154 -14 236 -57 343 -13 34 -18
30 -63 -54 l-35 -64 0 50 c0 78 18 182 47 278 l27 89 17 -24 c10 -13 32 -56
49 -97z m-3623 27 c-3 -8 -6 -5 -6 6 -1 11 2 17 5 13 3 -3 4 -12 1 -19z m3780
-10 c-3 -8 -6 -5 -6 6 -1 11 2 17 5 13 3 -3 4 -12 1 -19z m-4187 -101 c185
-100 320 -236 409 -416 44 -88 76 -169 69 -176 -7 -7 -143 60 -206 102 -78 52
-195 165 -248 239 -45 63 -127 226 -140 278 -6 26 -5 28 17 21 13 -4 58 -25
99 -48z m4785 26 c-12 -51 -94 -214 -139 -277 -53 -74 -170 -187 -248 -239
-63 -42 -199 -109 -206 -102 -7 7 25 88 69 176 74 149 181 269 327 368 59 40
177 101 196 101 4 0 5 -12 1 -27z m-602 -145 c-3 -40 -7 -75 -9 -76 -1 -2 -4
30 -6 72 -2 54 0 76 9 76 9 0 10 -20 6 -72z m-3439 -56 c40 -79 81 -191 90
-247 4 -22 10 -49 13 -60 3 -14 -2 -10 -18 11 -41 53 -90 106 -94 102 -3 -2
-10 -50 -16 -106 -15 -130 0 -277 42 -404 16 -50 28 -93 26 -95 -3 -2 -20 27
-40 64 -98 189 -137 403 -107 593 16 98 51 221 61 214 5 -3 25 -36 43 -72z
m3261 -27 c49 -192 44 -370 -16 -549 -28 -85 -97 -231 -106 -223 -2 2 10 45
26 95 42 127 57 274 42 404 -6 56 -13 104 -16 106 -4 4 -53 -49 -94 -102 -16
-21 -21 -25 -18 -11 3 11 9 38 13 60 17 97 123 340 141 322 2 -2 15 -48 28
-102z m-3588 -81 c9 4 13 -4 13 -22 1 -15 9 -63 20 -107 10 -44 17 -81 16 -83
-2 -1 -12 20 -24 47 -24 58 -113 200 -142 226 -11 10 -20 22 -20 27 0 4 28
-15 62 -42 34 -28 68 -48 75 -46z m3840 59 c-3 -10 -5 -4 -5 12 0 17 2 24 5
18 2 -7 2 -21 0 -30z m106 -6 c-39 -45 -117 -171 -139 -225 -9 -24 -18 -41
-20 -39 -2 2 5 44 16 93 11 49 20 103 21 119 1 17 3 22 6 13 2 -10 8 -18 12
-18 4 0 34 22 66 48 33 27 62 48 64 46 2 -2 -10 -19 -26 -37z m-196 -24 c-3
-10 -5 -4 -5 12 0 17 2 24 5 18 2 -7 2 -21 0 -30z m-3650 -85 c-3 -8 -6 -5 -6
6 -1 11 2 17 5 13 3 -3 4 -12 1 -19z m33 -67 c0 -20 7 -65 15 -100 22 -91 11
-87 -13 6 -35 131 -35 130 -18 130 12 0 16 -10 16 -36z m3576 -57 c-10 -41
-20 -73 -22 -71 -3 2 0 24 5 48 6 24 11 62 11 84 0 30 3 36 12 27 9 -9 8 -29
-6 -88z m-4067 32 c148 -51 290 -143 391 -253 62 -67 175 -236 161 -241 -14
-5 -146 36 -224 69 -133 56 -277 167 -365 281 -42 55 -112 166 -112 179 0 9
59 -5 149 -35z m4685 2 c-69 -135 -221 -294 -357 -375 -83 -48 -301 -130 -327
-121 -15 5 95 171 160 241 70 77 152 139 253 192 89 46 270 110 285 99 2 -1
-4 -17 -14 -36z m-3887 -111 c46 -70 108 -196 100 -203 -3 -3 -28 16 -58 41
-29 25 -56 45 -61 45 -11 0 -10 -88 3 -173 16 -108 56 -232 105 -327 l44 -85
-35 40 c-96 108 -183 291 -211 445 -14 81 -18 237 -7 316 l6 48 35 -40 c19
-21 55 -70 79 -107z m3082 -32 c1 -55 -4 -129 -10 -165 -24 -153 -115 -352
-210 -460 l-39 -45 39 75 c51 96 90 212 107 320 15 94 18 190 6 190 -5 0 -32
-20 -61 -45 -30 -25 -55 -44 -58 -41 -15 14 98 213 171 300 l41 50 7 -40 c4
-21 7 -84 7 -139z m-3445 -45 c7 0 23 -28 36 -62 12 -35 35 -92 51 -128 15
-36 23 -57 16 -46 -76 117 -165 218 -252 284 -33 25 -64 49 -69 53 -5 4 39
-17 98 -47 58 -29 113 -54 120 -54z m3846 62 c-92 -71 -201 -193 -267 -298 -6
-10 11 38 39 107 49 121 53 127 87 138 20 6 65 27 101 45 78 42 86 43 40 8z
m-3409 -195 c71 -69 141 -156 184 -231 l29 -49 -45 27 c-64 39 -109 59 -115
53 -11 -11 46 -188 86 -268 45 -90 87 -155 138 -211 19 -21 32 -41 29 -45 -4
-3 -48 37 -100 88 -134 135 -211 267 -259 444 -21 80 -36 255 -21 255 5 0 38
-28 74 -63z m2886 -29 c-10 -154 -58 -298 -144 -437 -46 -74 -228 -270 -240
-258 -3 4 10 24 29 45 51 56 93 121 138 211 40 80 97 257 86 268 -6 6 -51 -14
-115 -53 l-45 -27 29 49 c15 27 49 76 74 109 48 64 169 185 185 185 5 0 6 -38
3 -92z m-3147 9 c13 -34 38 -93 57 -130 19 -38 30 -66 25 -63 -9 5 -113 212
-125 248 -4 11 -2 15 7 12 8 -3 24 -33 36 -67z m3370 53 c0 -13 -109 -230
-115 -230 -3 0 8 26 24 58 15 31 39 85 51 120 20 55 40 81 40 52z m-3885 -120
c156 -23 286 -70 406 -149 114 -75 234 -190 216 -207 -9 -10 -237 17 -306 36
-161 45 -313 135 -436 260 l-69 70 59 0 c33 0 92 -5 130 -10z m4480 -60 c-173
-174 -373 -268 -619 -290 -61 -5 -114 -10 -118 -10 -35 0 48 90 155 171 166
125 369 194 582 198 l69 1 -69 -70z m-4085 -31 c41 -11 80 -17 87 -15 6 3 26
-20 44 -52 17 -31 47 -79 67 -107 l36 -50 -70 64 c-78 71 -131 110 -219 159
-33 19 -51 31 -40 27 11 -4 54 -15 95 -26z m3622 -3 c-74 -41 -156 -101 -231
-171 l-54 -50 40 60 c22 33 55 86 73 118 31 55 46 74 33 41 -5 -13 0 -14 33
-8 22 4 64 15 94 24 80 26 82 23 12 -14z m-3017 -127 c71 -49 188 -159 169
-159 -6 0 -36 9 -67 19 -70 24 -71 19 -21 -82 69 -137 165 -257 264 -333 61
-47 65 -62 8 -33 -171 87 -332 249 -418 419 -33 66 -90 224 -90 251 0 13 72
-25 155 -82z m2490 -6 c-79 -255 -254 -466 -482 -582 -58 -29 -54 -14 7 33 99
76 195 196 264 333 51 101 49 106 -21 82 -31 -10 -61 -18 -66 -16 -12 4 109
116 170 158 60 42 146 89 152 84 2 -2 -9 -44 -24 -92z m-2847 61 c5 3 15 -8
22 -24 26 -64 174 -259 187 -247 3 3 27 -21 54 -53 62 -75 165 -165 188 -165
10 -1 35 -15 54 -32 87 -76 254 -173 266 -154 4 6 24 -1 51 -18 25 -15 75 -40
112 -56 37 -16 66 -31 64 -33 -8 -7 -205 72 -298 120 -246 126 -474 319 -638
541 -58 78 -119 173 -87 133 9 -10 20 -15 25 -12z m3039 -82 c-69 -100 -184
-230 -277 -310 l-75 -66 61 64 c33 36 72 79 86 97 14 18 28 29 31 26 13 -12
160 183 187 246 7 19 17 28 26 24 10 -4 0 -25 -39 -81z m-3277 -127 c82 -18
160 -45 230 -80 70 -35 188 -116 224 -154 l28 -29 -47 -8 c-77 -11 -263 2
-355 25 -113 29 -267 106 -362 182 -43 34 -78 65 -78 70 0 21 249 17 360 -6z
m3833 19 c43 -4 77 -10 77 -14 0 -4 -35 -35 -77 -69 -96 -76 -250 -153 -363
-182 -92 -23 -278 -36 -355 -25 l-47 8 28 29 c15 16 61 52 101 80 130 90 289
151 433 168 103 12 116 12 203 5z m-3530 -61 c22 -27 77 -86 121 -132 58 -61
66 -72 28 -39 -100 88 -233 164 -352 202 l-65 21 114 -2 113 -3 41 -47z m3143
30 c-81 -27 -209 -93 -274 -141 -70 -53 -135 -113 -128 -119 3 -3 47 -10 98
-15 98 -10 126 -18 62 -18 -80 0 -260 -55 -354 -108 -58 -32 -53 -27 47 46
122 91 235 194 318 290 l75 87 110 0 110 0 -64 -22z m-2689 -8 c38 -14 96 -42
131 -61 62 -33 175 -114 170 -120 -2 -1 -40 2 -86 8 -45 6 -85 8 -89 5 -8 -9
85 -123 158 -193 71 -67 122 -104 219 -158 81 -45 61 -46 -45 -3 -176 71 -303
164 -408 297 -53 67 -147 223 -147 244 0 12 30 6 97 -19z m2133 18 c0 -17 -85
-162 -130 -223 -108 -145 -258 -255 -443 -325 -94 -35 -103 -31 -27 11 97 54
148 91 219 158 73 70 166 184 158 193 -4 3 -44 1 -89 -5 -46 -6 -84 -9 -86 -7
-6 5 139 105 193 132 102 53 205 85 205 66z m-1781 -229 c169 -39 317 -122
447 -249 91 -90 132 -141 121 -151 -9 -10 -196 23 -267 47 -90 29 -204 88
-277 143 -62 47 -195 182 -215 219 -10 19 -8 20 57 13 37 -4 97 -14 134 -22z
m1522 7 c-19 -35 -152 -170 -214 -217 -83 -63 -243 -138 -347 -162 -110 -26
-200 -37 -200 -23 0 16 91 121 151 175 126 114 287 194 449 225 30 6 64 13 75
15 11 2 37 4 58 5 34 1 37 -1 28 -18z m-1991 -136 c36 -26 67 -49 70 -52 2 -2
-34 12 -80 32 -95 41 -225 75 -284 75 -65 0 -36 8 64 18 57 6 96 15 98 22 3 7
16 0 36 -18 17 -16 60 -51 96 -77z m2220 66 c0 -7 -136 -99 -180 -121 -35 -17
-16 -1 60 52 36 25 73 55 84 67 17 19 36 20 36 2z m-2376 -50 c85 -23 286
-114 286 -129 0 -15 -145 -51 -250 -62 -122 -12 -255 2 -375 41 -97 31 -237
99 -237 114 1 11 56 30 152 50 96 21 322 13 424 -14z m2998 15 c95 -19 159
-39 161 -50 3 -14 -141 -84 -238 -115 -120 -39 -253 -53 -375 -41 -103 11
-250 47 -250 61 0 10 112 68 193 100 136 55 359 74 509 45z m-832 -102 c0 -14
-326 -151 -336 -141 -2 2 22 14 54 27 31 13 83 38 114 56 32 18 58 28 60 22 2
-6 24 0 53 15 57 30 55 29 55 21z m95 -44 c-3 -5 27 -19 67 -30 130 -38 130
-38 8 -39 -103 -1 -233 -21 -305 -46 -14 -5 204 111 233 124 2 0 1 -3 -3 -9z
m-1728 -106 c-1 -1 -40 6 -87 17 -56 12 -127 19 -210 19 l-125 1 92 24 c51 13
100 28 110 33 13 8 42 -2 120 -41 56 -28 101 -52 100 -53z m-161 15 c76 -10
231 -53 247 -68 11 -11 -133 -75 -240 -108 -79 -24 -104 -27 -248 -27 -102 0
-176 4 -205 12 -117 34 -180 55 -180 62 0 8 50 33 138 71 137 59 322 81 488
58z m2199 -18 c115 -29 265 -93 265 -112 0 -6 -68 -29 -180 -61 -29 -8 -103
-12 -205 -12 -144 0 -169 3 -248 27 -107 33 -251 97 -240 108 13 12 174 59
238 69 93 14 278 5 370 -19z m-1658 -12 c15 -6 66 -20 113 -30 80 -18 81 -19
25 -13 -87 8 -196 34 -189 45 7 12 17 11 51 -2z m807 2 c6 -9 -41 -22 -148
-41 -93 -16 -99 -10 -11 10 44 10 91 23 105 29 32 13 47 13 54 2z m-357 -41
c80 -49 33 -140 -72 -140 -47 0 -81 15 -101 44 -35 54 19 116 101 116 22 0 54
-9 72 -20z m-632 -52 c-58 -3 -128 -11 -156 -17 -29 -6 -53 -10 -55 -8 -2 2
28 19 66 37 39 19 70 37 70 40 0 4 40 -5 90 -19 l89 -26 -104 -7z m1197 53 c2
-5 35 -25 73 -45 39 -20 59 -35 45 -32 -80 17 -205 28 -275 23 l-80 -5 103 28
c57 15 106 31 109 34 9 9 21 7 25 -3z m-755 -17 c-3 -3 -12 -4 -19 -1 -8 3 -5
6 6 6 11 1 17 -2 13 -5z m260 0 c-3 -3 -12 -4 -19 -1 -8 3 -5 6 6 6 11 1 17
-2 13 -5z m-560 -40 c-3 -3 -12 -4 -19 -1 -8 3 -5 6 6 6 11 1 17 -2 13 -5z
m58 -25 c41 -6 75 -15 75 -20 0 -14 -119 -90 -204 -130 -127 -59 -214 -80
-357 -86 -120 -5 -299 10 -299 26 0 23 212 141 315 176 128 43 316 57 470 34z
m1067 -3 c88 -17 153 -38 234 -77 67 -32 204 -119 204 -130 0 -16 -179 -31
-299 -26 -143 6 -230 27 -357 86 -86 41 -204 116 -204 130 0 28 304 39 422 17z
m-804 -39 c9 -10 -24 -48 -142 -166 -140 -140 -176 -166 -176 -128 0 12 289
307 301 307 4 0 11 -6 17 -13z m367 -137 c142 -142 149 -151 132 -167 -16 -17
-25 -10 -169 134 -131 131 -150 154 -139 167 8 9 16 16 20 16 3 0 74 -67 156
-150z"/>
<path d="M3717 5086 c-57 -24 -97 -51 -97 -67 0 -4 36 8 79 27 88 38 149 44
209 19 53 -23 79 -51 99 -109 16 -47 18 -49 21 -22 17 141 -145 220 -311 152z"/>
<path d="M4275 5092 c-67 -32 -105 -90 -105 -159 0 -36 16 -27 29 17 37 125
167 163 321 92 36 -17 67 -28 69 -26 9 8 -25 35 -76 60 -73 36 -180 43 -238
16z"/>
<path d="M3783 5019 c-51 -9 -94 -30 -75 -37 7 -2 25 1 40 6 55 21 85 22 143
6 66 -19 91 -12 38 10 -48 19 -97 24 -146 15z"/>
<path d="M4333 5019 c-51 -9 -94 -30 -75 -37 7 -2 25 1 40 6 55 21 85 22 143
6 66 -19 91 -12 38 10 -48 19 -97 24 -146 15z"/>
<path d="M3725 4950 c-50 -26 -63 -29 -83 -20 -47 21 -33 2 24 -34 73 -45 141
-60 214 -46 58 11 105 38 105 61 0 23 -82 61 -143 66 -50 4 -64 1 -117 -27z
m143 -32 c4 -38 -30 -56 -64 -33 -27 18 -28 19 -13 46 8 15 19 19 42 17 26 -2
33 -8 35 -30z m-105 -15 c6 -31 6 -32 -23 -21 -42 14 -45 25 -13 42 15 8 28
14 29 13 1 -1 4 -16 7 -34z m191 -2 c-5 -4 -22 -13 -38 -19 -25 -11 -28 -11
-22 3 3 9 6 25 6 36 0 19 1 19 31 3 17 -8 27 -19 23 -23z"/>
<path d="M3813 4924 c-8 -21 13 -42 28 -27 13 13 5 43 -11 43 -6 0 -13 -7 -17
-16z"/>
<path d="M4308 4966 c-52 -19 -90 -45 -85 -59 7 -22 66 -55 110 -61 72 -11
188 26 252 79 l20 17 -20 -7 c-47 -17 -57 -17 -73 -2 -49 44 -134 58 -204 33z
m110 -48 c3 -22 -2 -30 -23 -40 -22 -10 -29 -9 -46 9 -18 17 -19 24 -9 42 9
17 19 21 43 19 27 -2 33 -8 35 -30z m-106 -12 c4 -32 3 -33 -21 -25 -42 16
-44 21 -20 40 33 25 36 24 41 -15z m167 -16 c-19 -10 -35 -17 -35 -17 -1 1 1
16 3 34 l5 32 31 -16 31 -15 -35 -18z"/>
<path d="M4363 4924 c-8 -21 13 -42 28 -27 13 13 5 43 -11 43 -6 0 -13 -7 -17
-16z"/>
</g>
</svg>
