<?xml version="1.0" encoding="utf-8"?>
<!-- Generator: Adobe Illustrator 15.0.0, SVG Export Plug-In . SVG Version: 6.00 Build 0)  -->
<!DOCTYPE svg PUBLIC "-//W3C//DTD SVG 1.1//EN" "http://www.w3.org/Graphics/SVG/1.1/DTD/svg11.dtd">
<svg version="1.1" id="Field" xmlns="http://www.w3.org/2000/svg" xmlns:xlink="http://www.w3.org/1999/xlink" x="0px" y="0px"
	 width="373.75px" height="451.681px" viewBox="0 0 373.75 451.681" enable-background="new 0 0 373.75 451.681"
	 xml:space="preserve">
<path fill="#0000FF" stroke="#000000" stroke-miterlimit="10" d="M363.232,191.531c-18.338,103.063-105.78,202.375-176.404,250.297
	C116.204,393.906,28.762,294.594,10.424,191.531H363.232z"/>
<path stroke="#000000" stroke-miterlimit="10" d="M10.424,191.531c-2.26-12.702-3.471-25.461-3.471-38.188V9.828h359.75v143.516
	c0,12.727-1.211,25.485-3.471,38.188H10.424z"/>
<g>
	<g>
		
			<path id="path21_1_" fill="#FFFF00" stroke="#000000" stroke-width="0.75" stroke-linecap="round" stroke-linejoin="round" stroke-miterlimit="3" d="
			M75.204,191.531l69.644-7.434c-2.057-0.637-5.14-2.795-8.484-2.421c-9.272,1.14-18.36-3.231-23.256-11.188
			c-3.295-9.062-11.322-15.565-20.869-16.909c9.396-3.962,20.267-0.122,25.091,8.862c4.026,5.954,11.269,8.859,18.292,7.333
			c5.125-1.176,10.234-1.502,15.481-1.104l-42.898-55.264l55.992,42.553c-1.111-3.862-1.188-5.636-3.545-8.893
			c-7.106-6.071-10.01-15.715-7.431-24.686c4.473-8.53,3.862-18.826-1.591-26.77c9.273,4.261,13.775,14.862,10.39,24.469
			c-1.685,6.976,1.058,14.271,6.927,18.421c5.736,3.144,6.353,8.926,9.187,12.15l8.742-70.368l8.742,70.368
			c2.832-3.224,3.45-9.006,9.187-12.15c5.866-4.151,8.61-11.445,6.927-18.421c-3.385-9.607,1.116-20.208,10.391-24.469
			c-5.454,7.944-6.064,18.24-1.592,26.77c2.579,8.97-0.324,18.615-7.431,24.686c-2.357,3.256-2.713,5.411-3.826,9.271l56.271-42.932
			l-43.571,55.585c5.245-0.4,11.031-0.394,16.156,0.782c7.021,1.526,14.266-1.379,18.29-7.333
			c4.826-8.984,15.696-12.824,25.09-8.862c-9.544,1.343-17.572,7.847-20.866,16.909c-4.896,7.957-13.987,12.328-23.257,11.188
			c-3.347-0.374-7.319,1.742-9.38,2.378l70.54,7.477H75.204z"/>
		
			<path id="path26" fill="#FFFF00" stroke="#000000" stroke-width="0.75" stroke-linecap="round" stroke-linejoin="round" stroke-miterlimit="3" d="
			M227.983,191.531c0-22.946-18.606-41.549-41.551-41.549c-22.946,0-41.55,18.603-41.55,41.549H227.983z"/>
	</g>
</g>
<g id="Laurel_1_1_">
	<g>
		
			<path id="path24_3_" fill="#FFFF00" stroke="#000000" stroke-width="0.75" stroke-linecap="round" stroke-linejoin="round" stroke-miterlimit="3" d="
			M101.772,61.324c7.771-20.38,26.792-31.244,45.133-25.775c-6.365,21.804-26.484,33.381-44.933,25.859
			C101.907,61.381,101.841,61.351,101.772,61.324z"/>
		
			<path id="path29_3_" fill="#FFFF00" stroke="#000000" stroke-width="0.75" stroke-linecap="round" stroke-linejoin="round" stroke-miterlimit="3" d="
			M108.732,244.917c2.308,13.017,8.775,24.48,18.051,32.005c6.501-11.32,4.007-26.725-5.569-34.406
			c-1.536-1.232-3.204-2.218-4.96-2.928c-8.23-6.442-14.545-15.77-18.054-26.669c-6.547,26.938,6.067,55.188,28.583,64.003
			C117.002,270.004,110.371,258.251,108.732,244.917z"/>
		
			<path id="path34_3_" fill="#FFFF00" stroke="#000000" stroke-width="0.75" stroke-linecap="round" stroke-linejoin="round" stroke-miterlimit="3" d="
			M79.105,214.585c-3.546,9.236-3.272,20.737,0.762,32.112c8.404-8.43,12.621-19.383,11.691-30.357
			c-2.9-9.367-5.39-18.769-7.453-28.165c-16.278,7.986-19.716,31.762-7.682,53.108c1.048,1.862,2.202,3.671,3.443,5.414
			C75.199,235.287,74.917,223.495,79.105,214.585z"/>
		
			<path id="path39_3_" fill="#FFFF00" stroke="#000000" stroke-width="0.75" stroke-linecap="round" stroke-linejoin="round" stroke-miterlimit="3" d="
			M64.216,179.212c-5.4,5.23-8.644,14.754-9.052,26.596c8.775-1.444,15.19-7.633,17.788-17.154
			c0.646-9.483,1.612-18.724,2.893-27.689c-14.495-3.982-24.173,13.135-21.616,38.234c0.222,2.185,0.535,4.393,0.936,6.609
			C55.111,193.53,58.433,183.763,64.216,179.212z"/>
		
			<path id="path44_3_" fill="#FFFF00" stroke="#000000" stroke-width="0.75" stroke-linecap="round" stroke-linejoin="round" stroke-miterlimit="3" d="
			M62.788,141.103c-7.669,2.967-14.421,11.27-18.857,23.174c10.082,2.379,19.187-1.123,25.23-9.7
			c3.902-9.399,8.069-18.406,12.49-26.994c-14.508-10.429-30.86,2.79-36.516,29.531c-0.493,2.332-0.896,4.726-1.204,7.163
			C48.006,151.722,54.932,143.213,62.788,141.103z"/>
		
			<path id="path49_3_" fill="#FFFF00" stroke="#000000" stroke-width="0.75" stroke-linecap="round" stroke-linejoin="round" stroke-miterlimit="3" d="
			M76.124,102.84c-6.868-0.468-14.215,3.335-20.512,10.611c15.337,6.182,29.432,0.9,36.124-13.533c1.778-3.369,3.999-6,6.465-7.654
			c-14.147-6.266-30.718,1.977-42.588,21.187C61.769,105.571,69.298,101.673,76.124,102.84z"/>
		
			<path id="path54_3_" fill="#FFFF00" stroke="#000000" stroke-width="0.75" stroke-linecap="round" stroke-linejoin="round" stroke-miterlimit="3" d="
			M105.613,76.109c-6.059-3.851-14.076-4.075-22.382-0.625c11.686,13.263,26.35,15.518,37.577,5.777
			c2.813-2.166,5.77-3.442,8.596-3.71c-10.583-12.744-28.546-13.549-46.173-2.067C91.627,71.414,99.847,71.644,105.613,76.109z"/>
		
			<path id="path59_3_" fill="#FFFF00" stroke="#000000" stroke-width="0.75" stroke-linecap="round" stroke-linejoin="round" stroke-miterlimit="3" d="
			M92.033,47.784c0.395,8.116-2.821,16.797-8.978,24.238c-5.232-18.127-0.767-34.78,11.449-42.69
			c2.853-2.099,5.079-4.727,6.478-7.638c5.303,16.719-1.673,36.299-17.927,50.328C89.723,64.749,93.021,55.849,92.033,47.784z"/>
		
			<path id="path64_3_" fill="#FFFF00" stroke="#000000" stroke-width="0.75" stroke-linecap="round" stroke-linejoin="round" stroke-miterlimit="3" d="
			M56.895,81.641c2.722,7.469,2.21,16.926-1.42,26.405c-8.894-12.244-9.811-26.926-2.35-37.629
			c2.837-5.596,4.431-11.411,4.631-16.909c14.476,9.645,14.289,33.032-0.424,52.231c-0.601,0.783-1.22,1.553-1.857,2.307
			C59.635,98.516,60.159,88.819,56.895,81.641z"/>
		
			<path id="path69_3_" fill="#FFFF00" stroke="#000000" stroke-width="0.75" stroke-linecap="round" stroke-linejoin="round" stroke-miterlimit="3" d="
			M36.122,132.086c5.393,8.543,7.321,17.935,5.279,25.709c6.96-13.882,5.704-28.532-3.214-37.541
			c-3.62-4.925-6.041-10.326-7.044-15.701c-12.843,12.471-9.218,35.462,8.09,51.352c0.706,0.648,1.431,1.28,2.168,1.89
			C43.09,149.916,41.188,140.666,36.122,132.086z"/>
		
			<path id="path74_3_" fill="#FFFF00" stroke="#000000" stroke-width="0.75" stroke-linecap="round" stroke-linejoin="round" stroke-miterlimit="3" d="
			M33.377,190.211c9.995,5.102,16.805,13.567,18.642,23.181c0.182-19.532-8.604-33.99-22.522-37.053
			c-6.289-2.578-11.568-6.501-15.356-11.417c-7.05,22.256,8.464,43.763,34.65,48.04c1.067,0.175,2.142,0.318,3.228,0.43
			C49.758,203.921,43.051,195.585,33.377,190.211z"/>
		
			<path id="path79_3_" fill="#FFFF00" stroke="#000000" stroke-width="0.75" stroke-linecap="round" stroke-linejoin="round" stroke-miterlimit="3" d="
			M55.259,239.13c10.883-0.367,20.082,3.903,25.183,11.696c-6.818-17.789-19.951-26.504-33.66-22.335
			c-6.621,0.804-12.809-0.115-18.001-2.674c1.572,23.688,23.322,35.432,48.584,26.229c1.03-0.374,2.055-0.779,3.077-1.221
			C75.006,243.373,65.949,239.166,55.259,239.13z"/>
		
			<path id="path84_3_" fill="#FFFF00" stroke="#000000" stroke-width="0.75" stroke-linecap="round" stroke-linejoin="round" stroke-miterlimit="3" d="
			M91.185,281.426c12.184-4.666,23.702-3.474,31.529,3.273c-12.427-17.278-29.566-21.915-43.924-11.875
			c-7.26,3.487-14.492,4.875-21.036,4.029c8.072,25.946,35.744,30.612,61.807,10.422c1.064-0.824,2.115-1.688,3.153-2.576
			C114.602,278.466,103.258,277.286,91.185,281.426z"/>
		
			<path id="path89_3_" fill="#FFFF00" stroke="#000000" stroke-width="0.75" stroke-linecap="round" stroke-linejoin="round" stroke-miterlimit="3" d="
			M235.103,314.263c-53.759-5.751-105.086-29.153-148.186-67.558c-24.864-20.885-39.704-54.63-39.87-90.678
			c6.886-48.252,34.961-88.544,73.719-105.786C78.613,62.799,47.089,104.265,41.03,155.137
			c-0.619,40.678,16.407,78.908,45.13,101.336c44.814,36.507,96.427,59.685,150.443,67.558
			C237.489,320.681,236.925,317.033,235.103,314.263z"/>
	</g>
	<g>
		
			<path id="path97_3_" fill="#FFFF00" stroke="#000000" stroke-width="0.75" stroke-linecap="round" stroke-linejoin="round" stroke-miterlimit="3" d="
			M271.979,61.324c-7.771-20.38-26.787-31.244-45.134-25.775c6.37,21.804,26.487,33.381,44.938,25.859
			C271.848,61.381,271.916,61.351,271.979,61.324z"/>
		
			<path id="path102_3_" fill="#FFFF00" stroke="#000000" stroke-width="0.75" stroke-linecap="round" stroke-linejoin="round" stroke-miterlimit="3" d="
			M265.024,244.917c-2.313,13.017-8.778,24.48-18.057,32.005c-6.502-11.32-4.01-26.725,5.569-34.406
			c1.538-1.232,3.203-2.218,4.963-2.928c8.23-6.442,14.542-15.77,18.052-26.669c6.549,26.938-6.064,55.188-28.584,64.003
			C256.752,270.004,263.38,258.251,265.024,244.917z"/>
		
			<path id="path107_3_" fill="#FFFF00" stroke="#000000" stroke-width="0.75" stroke-linecap="round" stroke-linejoin="round" stroke-miterlimit="3" d="
			M294.651,214.585c3.54,9.236,3.267,20.737-0.77,32.112c-8.398-8.43-12.613-19.383-11.687-30.357
			c2.897-9.367,5.39-18.769,7.45-28.165c16.281,7.986,19.722,31.762,7.682,53.108c-1.048,1.862-2.196,3.671-3.445,5.414
			C298.556,235.287,298.84,223.495,294.651,214.585z"/>
		
			<path id="path112_3_" fill="#FFFF00" stroke="#000000" stroke-width="0.75" stroke-linecap="round" stroke-linejoin="round" stroke-miterlimit="3" d="
			M309.541,179.212c5.4,5.23,8.641,14.754,9.047,26.596c-8.773-1.444-15.19-7.633-17.788-17.154
			c-0.643-9.483-1.607-18.724-2.893-27.689c14.494-3.982,24.174,13.135,21.618,38.234c-0.222,2.185-0.537,4.393-0.938,6.609
			C318.64,193.53,315.321,183.763,309.541,179.212z"/>
		
			<path id="path117_3_" fill="#FFFF00" stroke="#000000" stroke-width="0.75" stroke-linecap="round" stroke-linejoin="round" stroke-miterlimit="3" d="
			M310.964,141.103c7.671,2.967,14.426,11.27,18.856,23.174c-10.079,2.379-19.184-1.123-25.227-9.7
			c-3.904-9.399-8.072-18.406-12.487-26.994c14.505-10.429,30.854,2.79,36.513,29.531c0.495,2.332,0.896,4.726,1.201,7.163
			C325.743,151.722,318.824,143.213,310.964,141.103z"/>
		
			<path id="path122_3_" fill="#FFFF00" stroke="#000000" stroke-width="0.75" stroke-linecap="round" stroke-linejoin="round" stroke-miterlimit="3" d="
			M297.633,102.84c6.866-0.468,14.211,3.335,20.507,10.611c-15.338,6.182-29.432,0.9-36.123-13.533
			c-1.775-3.369-3.999-6-6.465-7.654c14.152-6.266,30.717,1.977,42.588,21.187C311.985,105.571,304.451,101.673,297.633,102.84z"/>
		
			<path id="path127_3_" fill="#FFFF00" stroke="#000000" stroke-width="0.75" stroke-linecap="round" stroke-linejoin="round" stroke-miterlimit="3" d="
			M268.144,76.109c6.054-3.851,14.073-4.075,22.382-0.625c-11.691,13.263-26.354,15.518-37.577,5.777
			c-2.819-2.166-5.77-3.442-8.6-3.71c10.58-12.744,28.547-13.549,46.177-2.067C282.127,71.414,273.907,71.644,268.144,76.109z"/>
		
			<path id="path132_3_" fill="#FFFF00" stroke="#000000" stroke-width="0.75" stroke-linecap="round" stroke-linejoin="round" stroke-miterlimit="3" d="
			M281.722,47.784c-0.396,8.116,2.818,16.797,8.978,24.238c5.232-18.127,0.765-34.78-11.449-42.69
			c-2.851-2.099-5.079-4.727-6.48-7.638c-5.301,16.719,1.676,36.299,17.93,50.328C284.029,64.749,280.736,55.849,281.722,47.784z"/>
		
			<path id="path137_3_" fill="#FFFF00" stroke="#000000" stroke-width="0.75" stroke-linecap="round" stroke-linejoin="round" stroke-miterlimit="3" d="
			M316.859,81.641c-2.719,7.469-2.213,16.926,1.423,26.405c8.889-12.244,9.805-26.926,2.35-37.629
			c-2.84-5.596-4.432-11.411-4.631-16.909c-14.484,9.645-14.295,33.032,0.421,52.231c0.596,0.783,1.218,1.553,1.86,2.307
			C314.119,98.516,313.598,88.819,316.859,81.641z"/>
		
			<path id="path142_3_" fill="#FFFF00" stroke="#000000" stroke-width="0.75" stroke-linecap="round" stroke-linejoin="round" stroke-miterlimit="3" d="
			M337.635,132.086c-5.396,8.543-7.324,17.935-5.285,25.709c-6.955-13.882-5.701-28.532,3.214-37.541
			c3.62-4.925,6.044-10.326,7.045-15.701c12.846,12.471,9.221,35.462-8.088,51.352c-0.706,0.648-1.428,1.28-2.171,1.89
			C330.664,149.916,332.561,140.666,337.635,132.086z"/>
		
			<path id="path147_3_" fill="#FFFF00" stroke="#000000" stroke-width="0.75" stroke-linecap="round" stroke-linejoin="round" stroke-miterlimit="3" d="
			M340.38,190.211c-10.001,5.102-16.808,13.567-18.646,23.181c-0.18-19.532,8.609-33.99,22.519-37.053
			c6.291-2.578,11.57-6.501,15.358-11.417c7.051,22.256-8.467,43.763-34.647,48.04c-1.069,0.175-2.145,0.318-3.229,0.43
			C323.999,203.921,330.7,195.585,340.38,190.211z"/>
		
			<path id="path152_3_" fill="#FFFF00" stroke="#000000" stroke-width="0.75" stroke-linecap="round" stroke-linejoin="round" stroke-miterlimit="3" d="
			M318.493,239.13c-10.881-0.367-20.08,3.903-25.181,11.696c6.818-17.789,19.953-26.504,33.657-22.335
			c6.623,0.804,12.814-0.115,18.004-2.674c-1.575,23.688-23.325,35.432-48.584,26.229c-1.032-0.374-2.061-0.779-3.077-1.221
			C298.745,243.373,307.802,239.166,318.493,239.13z"/>
		
			<path id="path157_3_" fill="#FFFF00" stroke="#000000" stroke-width="0.75" stroke-linecap="round" stroke-linejoin="round" stroke-miterlimit="3" d="
			M282.564,281.426c-12.182-4.666-23.699-3.474-31.523,3.273c12.424-17.278,29.563-21.915,43.921-11.875
			c7.266,3.487,14.494,4.875,21.039,4.029c-8.072,25.946-35.744,30.612-61.81,10.422c-1.06-0.824-2.112-1.688-3.15-2.576
			C259.154,278.466,270.493,277.286,282.564,281.426z"/>
		
			<path id="path162_3_" fill="#FFFF00" stroke="#000000" stroke-width="0.75" stroke-linecap="round" stroke-linejoin="round" stroke-miterlimit="3" d="
			M138.652,314.263c53.762-5.751,105.086-29.153,148.185-67.558c24.864-20.885,39.707-54.63,39.87-90.678
			c-6.887-48.252-34.964-88.544-73.717-105.786c42.15,12.558,73.675,54.023,79.733,104.896
			c0.617,40.678-16.407,78.908-45.133,101.336c-44.812,36.507-96.426,59.685-150.44,67.558
			C136.262,320.681,136.826,317.033,138.652,314.263z"/>
	</g>
</g>
<g>
	
		<path fill="#FFFF00" stroke="#000000" stroke-width="0.75" stroke-linecap="round" stroke-linejoin="round" stroke-miterlimit="3" d="
		M167.412,14.293c-8.962,6.094-14.849,16.374-14.849,28.028c0,18.706,15.164,33.869,33.87,33.869
		c18.705,0,33.869-15.164,33.869-33.869c0-11.647-5.877-21.92-14.83-28.015c2.113,3.415,3.332,7.457,3.332,11.768
		c0,12.355-10.016,22.371-22.371,22.371s-22.371-10.016-22.371-22.371C164.063,21.752,165.288,17.713,167.412,14.293z"/>
	<path fill="none" stroke="#000000" stroke-linecap="round" stroke-linejoin="round" stroke-miterlimit="10" d="M205.454,14.293
		c17.699,17.699,3.923,48.099-19.021,48.099s-36.719-30.4-19.021-48.099"/>
</g>
</svg>
