<?xml version="1.0" encoding="utf-8"?>
<!-- Generator: Adobe Illustrator 15.0.0, SVG Export Plug-In . SVG Version: 6.00 Build 0)  -->
<!DOCTYPE svg PUBLIC "-//W3C//DTD SVG 1.1//EN" "http://www.w3.org/Graphics/SVG/1.1/DTD/svg11.dtd">
<svg version="1.1" id="Field" xmlns="http://www.w3.org/2000/svg" xmlns:xlink="http://www.w3.org/1999/xlink" x="0px" y="0px"
	 width="373.75px" height="451.681px" viewBox="0 0 373.75 451.681" enable-background="new 0 0 373.75 451.681"
	 xml:space="preserve">
<path fill="#0000FF" stroke="#000000" stroke-miterlimit="10" d="M366.703,9.828v143.516c0,115.989-100.547,234.656-179.875,288.484
	C107.5,388,6.953,269.333,6.953,153.344V9.828H366.703z"/>
<g>
	<g>
		
			<path id="path21_1_" fill="#FFFF00" stroke="#000000" stroke-width="0.75" stroke-linecap="round" stroke-linejoin="round" stroke-miterlimit="3" d="
			M17.564,78.344l32.164-3.434c-0.95-0.294-2.374-1.291-3.918-1.118c-4.282,0.526-8.479-1.492-10.741-5.167
			c-1.521-4.185-5.229-7.188-9.638-7.809c4.34-1.83,9.36-0.056,11.588,4.093c1.859,2.75,5.204,4.092,8.448,3.387
			c2.366-0.543,4.727-0.694,7.149-0.509L32.805,42.263l25.86,19.652c-0.513-1.783-0.549-2.603-1.638-4.106
			c-3.281-2.804-4.623-7.258-3.432-11.401c2.065-3.939,1.783-8.694-0.735-12.364c4.283,1.968,6.362,6.864,4.798,11.301
			c-0.778,3.222,0.489,6.591,3.199,8.508c2.649,1.452,2.935,4.122,4.243,5.611l4.038-32.499l4.038,32.499
			c1.308-1.489,1.593-4.159,4.243-5.611c2.709-1.917,3.977-5.286,3.199-8.508c-1.563-4.438,0.516-9.333,4.798-11.301
			c-2.519,3.669-2.8,8.424-0.734,12.364c1.19,4.143-0.15,8.597-3.433,11.401c-1.088,1.504-1.252,2.499-1.767,4.282l25.989-19.828
			L85.348,67.935c2.423-0.185,5.095-0.183,7.461,0.361c3.243,0.705,6.589-0.637,8.448-3.387c2.229-4.149,7.249-5.922,11.587-4.093
			c-4.407,0.621-8.115,3.624-9.636,7.809c-2.262,3.675-6.46,5.693-10.742,5.167c-1.545-0.172-3.38,0.804-4.332,1.099l32.579,3.453
			H17.564z"/>
		
			<path id="path26" fill="#FFFF00" stroke="#000000" stroke-width="0.75" stroke-linecap="round" stroke-linejoin="round" stroke-miterlimit="3" d="
			M88.124,78.344c0-10.598-8.594-19.189-19.189-19.189c-10.598,0-19.19,8.591-19.19,19.189H88.124z"/>
	</g>
</g>
<g>
	<g>
		
			<path id="path21_4_" fill="#FFFF00" stroke="#000000" stroke-width="0.75" stroke-linecap="round" stroke-linejoin="round" stroke-miterlimit="3" d="
			M79.139,146.249l32.164-3.434c-0.95-0.294-2.374-1.291-3.918-1.118c-4.282,0.526-8.479-1.492-10.74-5.167
			c-1.522-4.185-5.229-7.188-9.638-7.809c4.34-1.83,9.36-0.057,11.587,4.093c1.86,2.75,5.205,4.092,8.448,3.387
			c2.367-0.543,4.727-0.694,7.15-0.509l-19.812-25.523l25.859,19.652c-0.513-1.783-0.549-2.603-1.637-4.106
			c-3.281-2.804-4.623-7.258-3.432-11.401c2.065-3.939,1.783-8.695-0.735-12.364c4.283,1.968,6.362,6.864,4.798,11.301
			c-0.778,3.222,0.489,6.591,3.199,8.508c2.649,1.452,2.934,4.122,4.243,5.612l4.038-32.499l4.037,32.499
			c1.308-1.49,1.594-4.16,4.243-5.612c2.709-1.917,3.977-5.286,3.198-8.508c-1.563-4.437,0.516-9.333,4.799-11.301
			c-2.519,3.669-2.8,8.424-0.735,12.364c1.191,4.143-0.149,8.597-3.432,11.401c-1.089,1.503-1.252,2.499-1.767,4.282l25.988-19.828
			l-20.123,25.671c2.423-0.185,5.095-0.182,7.461,0.361c3.243,0.705,6.589-0.637,8.447-3.387c2.229-4.149,7.25-5.923,11.587-4.093
			c-4.408,0.621-8.115,3.624-9.637,7.809c-2.262,3.675-6.46,5.694-10.741,5.167c-1.545-0.173-3.38,0.804-4.332,1.099l32.579,3.453
			H79.139z"/>
		
			<path id="path26_3_" fill="#FFFF00" stroke="#000000" stroke-width="0.75" stroke-linecap="round" stroke-linejoin="round" stroke-miterlimit="3" d="
			M149.698,146.249c0-10.598-8.594-19.189-19.19-19.189c-10.597,0-19.189,8.591-19.189,19.189H149.698z"/>
	</g>
</g>
<g>
	<g>
		
			<path id="path21_5_" fill="#FFFF00" stroke="#000000" stroke-width="0.75" stroke-linecap="round" stroke-linejoin="round" stroke-miterlimit="3" d="
			M191.463,146.249l32.164-3.434c-0.95-0.294-2.373-1.291-3.918-1.118c-4.281,0.526-8.479-1.492-10.741-5.167
			c-1.521-4.185-5.229-7.188-9.638-7.809c4.34-1.83,9.36-0.057,11.588,4.093c1.859,2.75,5.205,4.092,8.448,3.387
			c2.366-0.543,4.727-0.694,7.149-0.509l-19.812-25.523l25.858,19.652c-0.512-1.783-0.548-2.603-1.636-4.106
			c-3.282-2.804-4.624-7.258-3.433-11.401c2.065-3.939,1.783-8.695-0.734-12.364c4.282,1.968,6.361,6.864,4.798,11.301
			c-0.778,3.222,0.489,6.591,3.199,8.508c2.648,1.452,2.934,4.122,4.243,5.612l4.037-32.499l4.037,32.499
			c1.309-1.49,1.594-4.16,4.242-5.612c2.71-1.917,3.978-5.286,3.199-8.508c-1.563-4.437,0.517-9.333,4.799-11.301
			c-2.519,3.669-2.8,8.424-0.734,12.364c1.19,4.143-0.149,8.597-3.433,11.401c-1.089,1.503-1.251,2.499-1.766,4.282l25.987-19.828
			l-20.123,25.671c2.423-0.185,5.095-0.182,7.462,0.361c3.243,0.705,6.589-0.637,8.447-3.387c2.229-4.149,7.249-5.923,11.587-4.093
			c-4.407,0.621-8.115,3.624-9.637,7.809c-2.262,3.675-6.459,5.694-10.741,5.167c-1.545-0.173-3.38,0.804-4.331,1.099l32.578,3.453
			H191.463z"/>
		
			<path id="path26_4_" fill="#FFFF00" stroke="#000000" stroke-width="0.75" stroke-linecap="round" stroke-linejoin="round" stroke-miterlimit="3" d="
			M262.021,146.249c0-10.598-8.593-19.189-19.189-19.189c-10.598,0-19.189,8.591-19.189,19.189H262.021z"/>
	</g>
</g>
<g>
	<g>
		
			<path id="path21_2_" fill="#FFFF00" stroke="#000000" stroke-width="0.75" stroke-linecap="round" stroke-linejoin="round" stroke-miterlimit="3" d="
			M135.301,78.344l32.164-3.434c-0.95-0.294-2.374-1.291-3.918-1.118c-4.282,0.526-8.479-1.492-10.741-5.167
			c-1.521-4.185-5.229-7.188-9.638-7.809c4.34-1.83,9.36-0.056,11.588,4.093c1.859,2.75,5.204,4.092,8.448,3.387
			c2.366-0.543,4.727-0.694,7.149-0.509l-19.812-25.523l25.86,19.652c-0.513-1.783-0.549-2.603-1.638-4.106
			c-3.281-2.804-4.623-7.258-3.432-11.401c2.065-3.939,1.783-8.694-0.735-12.364c4.283,1.968,6.362,6.864,4.798,11.301
			c-0.778,3.222,0.489,6.591,3.199,8.508c2.649,1.452,2.935,4.122,4.243,5.611l4.038-32.499l4.038,32.499
			c1.308-1.489,1.593-4.159,4.242-5.611c2.709-1.917,3.977-5.286,3.199-8.508c-1.563-4.438,0.515-9.333,4.798-11.301
			c-2.519,3.669-2.8,8.424-0.735,12.364c1.192,4.143-0.148,8.597-3.432,11.401c-1.088,1.504-1.252,2.499-1.767,4.282l25.988-19.828
			l-20.123,25.672c2.423-0.185,5.096-0.183,7.461,0.361c3.243,0.705,6.59-0.637,8.448-3.387c2.229-4.149,7.248-5.922,11.588-4.093
			c-4.408,0.621-8.116,3.624-9.638,7.809c-2.262,3.675-6.46,5.693-10.74,5.167c-1.545-0.172-3.381,0.804-4.332,1.099l32.577,3.453
			H135.301z"/>
		
			<path id="path26_1_" fill="#FFFF00" stroke="#000000" stroke-width="0.75" stroke-linecap="round" stroke-linejoin="round" stroke-miterlimit="3" d="
			M205.86,78.344c0-10.598-8.594-19.189-19.189-19.189c-10.598,0-19.19,8.591-19.19,19.189H205.86z"/>
	</g>
</g>
<g>
	<g>
		
			<path id="path21_3_" fill="#FFFF00" stroke="#000000" stroke-width="0.75" stroke-linecap="round" stroke-linejoin="round" stroke-miterlimit="3" d="
			M253.037,78.344L285.2,74.91c-0.95-0.294-2.374-1.291-3.918-1.118c-4.282,0.526-8.479-1.492-10.74-5.167
			c-1.522-4.185-5.23-7.188-9.639-7.809c4.341-1.83,9.36-0.056,11.588,4.093c1.858,2.75,5.204,4.092,8.448,3.387
			c2.366-0.543,4.727-0.694,7.15-0.509l-19.813-25.523l25.859,19.652c-0.513-1.783-0.549-2.603-1.638-4.106
			c-3.281-2.804-4.623-7.258-3.431-11.401c2.064-3.939,1.783-8.694-0.735-12.364c4.282,1.968,6.36,6.864,4.798,11.301
			c-0.777,3.222,0.488,6.591,3.199,8.508c2.649,1.452,2.934,4.122,4.242,5.611l4.038-32.499l4.038,32.499
			c1.308-1.489,1.593-4.159,4.242-5.611c2.709-1.917,3.977-5.286,3.199-8.508c-1.563-4.438,0.516-9.333,4.798-11.301
			c-2.519,3.669-2.8,8.424-0.735,12.364c1.192,4.143-0.148,8.597-3.432,11.401c-1.088,1.504-1.252,2.499-1.767,4.282l25.988-19.828
			l-20.123,25.672c2.423-0.185,5.096-0.183,7.461,0.361c3.243,0.705,6.59-0.637,8.448-3.387c2.229-4.149,7.248-5.922,11.588-4.093
			c-4.408,0.621-8.115,3.624-9.637,7.809c-2.263,3.675-6.461,5.693-10.741,5.167c-1.545-0.172-3.38,0.804-4.332,1.099l32.577,3.453
			H253.037z"/>
		
			<path id="path26_2_" fill="#FFFF00" stroke="#000000" stroke-width="0.75" stroke-linecap="round" stroke-linejoin="round" stroke-miterlimit="3" d="
			M323.596,78.344c0-10.598-8.594-19.189-19.189-19.189c-10.598,0-19.189,8.591-19.189,19.189H323.596z"/>
	</g>
</g>
<g>
	<g>
		
			<path id="path21_10_" fill="#FFFF00" stroke="#000000" stroke-width="0.75" stroke-linecap="round" stroke-linejoin="round" stroke-miterlimit="3" d="
			M17.564,208.188l32.164-3.434c-0.95-0.294-2.374-1.291-3.918-1.118c-4.282,0.526-8.479-1.492-10.741-5.167
			c-1.521-4.185-5.229-7.188-9.638-7.809c4.34-1.83,9.36-0.056,11.588,4.093c1.859,2.75,5.204,4.091,8.448,3.387
			c2.366-0.543,4.727-0.694,7.149-0.509l-19.812-25.523l25.86,19.652c-0.513-1.783-0.549-2.603-1.638-4.106
			c-3.281-2.804-4.623-7.258-3.432-11.401c2.065-3.939,1.783-8.695-0.735-12.364c4.283,1.968,6.362,6.864,4.798,11.301
			c-0.778,3.222,0.489,6.591,3.199,8.508c2.649,1.452,2.935,4.122,4.243,5.612l4.038-32.499l4.038,32.499
			c1.308-1.49,1.593-4.16,4.243-5.612c2.709-1.917,3.977-5.286,3.199-8.508c-1.563-4.437,0.516-9.333,4.798-11.301
			c-2.519,3.669-2.8,8.424-0.734,12.364c1.19,4.143-0.15,8.597-3.433,11.401c-1.088,1.504-1.252,2.499-1.767,4.282l25.989-19.828
			l-20.124,25.672c2.423-0.185,5.095-0.183,7.461,0.361c3.243,0.705,6.589-0.637,8.448-3.387c2.229-4.149,7.249-5.922,11.587-4.093
			c-4.407,0.621-8.115,3.624-9.636,7.809c-2.262,3.675-6.46,5.693-10.742,5.167c-1.545-0.173-3.38,0.804-4.332,1.099l32.579,3.453
			H17.564z"/>
		
			<path id="path26_9_" fill="#FFFF00" stroke="#000000" stroke-width="0.75" stroke-linecap="round" stroke-linejoin="round" stroke-miterlimit="3" d="
			M88.124,208.188c0-10.598-8.594-19.189-19.189-19.189c-10.598,0-19.19,8.592-19.19,19.189H88.124z"/>
	</g>
</g>
<g>
	<g>
		
			<path id="path21_9_" fill="#FFFF00" stroke="#000000" stroke-width="0.75" stroke-linecap="round" stroke-linejoin="round" stroke-miterlimit="3" d="
			M79.139,276.093l32.164-3.433c-0.95-0.295-2.374-1.291-3.918-1.118c-4.282,0.525-8.479-1.493-10.74-5.167
			c-1.522-4.186-5.229-7.189-9.638-7.81c4.34-1.829,9.36-0.057,11.587,4.092c1.86,2.75,5.205,4.092,8.448,3.388
			c2.367-0.543,4.727-0.693,7.15-0.509l-19.812-25.523l25.859,19.651c-0.513-1.783-0.549-2.602-1.637-4.105
			c-3.281-2.805-4.623-7.259-3.432-11.401c2.065-3.939,1.783-8.695-0.735-12.364c4.283,1.968,6.362,6.864,4.798,11.301
			c-0.778,3.222,0.489,6.592,3.199,8.508c2.649,1.453,2.934,4.123,4.243,5.612l4.038-32.499l4.037,32.499
			c1.308-1.489,1.594-4.159,4.243-5.612c2.709-1.916,3.977-5.286,3.198-8.508c-1.563-4.437,0.516-9.333,4.799-11.301
			c-2.519,3.669-2.8,8.425-0.735,12.364c1.191,4.143-0.149,8.597-3.432,11.401c-1.089,1.504-1.252,2.498-1.767,4.281l25.988-19.827
			l-20.123,25.671c2.423-0.185,5.095-0.182,7.461,0.361c3.243,0.704,6.589-0.638,8.447-3.388c2.229-4.148,7.25-5.921,11.587-4.092
			c-4.408,0.62-8.115,3.624-9.637,7.81c-2.262,3.674-6.46,5.692-10.741,5.167c-1.545-0.173-3.38,0.804-4.332,1.099l32.579,3.452
			H79.139z"/>
		
			<path id="path26_8_" fill="#FFFF00" stroke="#000000" stroke-width="0.75" stroke-linecap="round" stroke-linejoin="round" stroke-miterlimit="3" d="
			M149.698,276.093c0-10.598-8.594-19.188-19.19-19.188c-10.597,0-19.189,8.591-19.189,19.188H149.698z"/>
	</g>
</g>
<g>
	<g>
		
			<path id="path21_8_" fill="#FFFF00" stroke="#000000" stroke-width="0.75" stroke-linecap="round" stroke-linejoin="round" stroke-miterlimit="3" d="
			M191.463,276.093l32.164-3.433c-0.95-0.295-2.373-1.291-3.918-1.118c-4.281,0.525-8.479-1.493-10.741-5.167
			c-1.521-4.186-5.229-7.189-9.638-7.81c4.34-1.829,9.36-0.057,11.588,4.092c1.859,2.75,5.205,4.092,8.448,3.388
			c2.366-0.543,4.727-0.693,7.149-0.509l-19.812-25.523l25.858,19.651c-0.512-1.783-0.548-2.602-1.636-4.105
			c-3.282-2.805-4.624-7.259-3.433-11.401c2.065-3.939,1.783-8.695-0.734-12.364c4.282,1.968,6.361,6.864,4.798,11.301
			c-0.778,3.222,0.489,6.592,3.199,8.508c2.648,1.453,2.934,4.123,4.243,5.612l4.037-32.499l4.037,32.499
			c1.309-1.489,1.594-4.159,4.242-5.612c2.71-1.916,3.978-5.286,3.199-8.508c-1.563-4.437,0.517-9.333,4.799-11.301
			c-2.519,3.669-2.8,8.425-0.734,12.364c1.19,4.143-0.149,8.597-3.433,11.401c-1.089,1.504-1.251,2.498-1.766,4.281l25.987-19.827
			l-20.123,25.671c2.423-0.185,5.095-0.182,7.462,0.361c3.243,0.704,6.589-0.638,8.447-3.388c2.229-4.148,7.249-5.921,11.587-4.092
			c-4.407,0.62-8.115,3.624-9.637,7.81c-2.262,3.674-6.459,5.692-10.741,5.167c-1.545-0.173-3.38,0.804-4.331,1.099l32.578,3.452
			H191.463z"/>
		
			<path id="path26_7_" fill="#FFFF00" stroke="#000000" stroke-width="0.75" stroke-linecap="round" stroke-linejoin="round" stroke-miterlimit="3" d="
			M262.021,276.093c0-10.598-8.593-19.188-19.189-19.188c-10.598,0-19.189,8.591-19.189,19.188H262.021z"/>
	</g>
</g>
<g>
	<g>
		
			<path id="path21_7_" fill="#FFFF00" stroke="#000000" stroke-width="0.75" stroke-linecap="round" stroke-linejoin="round" stroke-miterlimit="3" d="
			M135.301,208.188l32.164-3.434c-0.95-0.294-2.374-1.291-3.918-1.118c-4.282,0.526-8.479-1.492-10.741-5.167
			c-1.521-4.185-5.229-7.188-9.638-7.809c4.34-1.83,9.36-0.056,11.588,4.093c1.859,2.75,5.204,4.091,8.448,3.387
			c2.366-0.543,4.727-0.694,7.149-0.509l-19.812-25.523l25.86,19.652c-0.513-1.783-0.549-2.603-1.638-4.106
			c-3.281-2.804-4.623-7.258-3.432-11.401c2.065-3.939,1.783-8.695-0.735-12.364c4.283,1.968,6.362,6.864,4.798,11.301
			c-0.778,3.222,0.489,6.591,3.199,8.508c2.649,1.452,2.935,4.122,4.243,5.612l4.038-32.499l4.038,32.499
			c1.308-1.49,1.593-4.16,4.242-5.612c2.709-1.917,3.977-5.286,3.199-8.508c-1.563-4.437,0.515-9.333,4.798-11.301
			c-2.519,3.669-2.8,8.424-0.735,12.364c1.192,4.143-0.148,8.597-3.432,11.401c-1.088,1.504-1.252,2.499-1.767,4.282l25.988-19.828
			l-20.123,25.672c2.423-0.185,5.096-0.183,7.461,0.361c3.243,0.705,6.59-0.637,8.448-3.387c2.229-4.149,7.248-5.922,11.588-4.093
			c-4.408,0.621-8.116,3.624-9.638,7.809c-2.262,3.675-6.46,5.693-10.74,5.167c-1.545-0.173-3.381,0.804-4.332,1.099l32.577,3.453
			H135.301z"/>
		
			<path id="path26_6_" fill="#FFFF00" stroke="#000000" stroke-width="0.75" stroke-linecap="round" stroke-linejoin="round" stroke-miterlimit="3" d="
			M205.86,208.188c0-10.598-8.594-19.189-19.189-19.189c-10.598,0-19.19,8.592-19.19,19.189H205.86z"/>
	</g>
</g>
<g>
	<g>
		
			<path id="path21_11_" fill="#FFFF00" stroke="#000000" stroke-width="0.75" stroke-linecap="round" stroke-linejoin="round" stroke-miterlimit="3" d="
			M135.301,338.188l32.164-3.434c-0.95-0.294-2.374-1.291-3.918-1.118c-4.282,0.526-8.479-1.492-10.741-5.167
			c-1.521-4.185-5.229-7.188-9.638-7.81c4.34-1.829,9.36-0.056,11.588,4.094c1.859,2.749,5.204,4.091,8.448,3.387
			c2.366-0.544,4.727-0.694,7.149-0.51l-19.812-25.523l25.86,19.652c-0.513-1.783-0.549-2.603-1.638-4.106
			c-3.281-2.804-4.623-7.259-3.432-11.401c2.065-3.939,1.783-8.694-0.735-12.363c4.283,1.969,6.362,6.863,4.798,11.301
			c-0.778,3.223,0.489,6.592,3.199,8.508c2.649,1.452,2.935,4.122,4.243,5.611l4.038-32.498l4.038,32.498
			c1.308-1.489,1.593-4.159,4.242-5.611c2.709-1.916,3.977-5.285,3.199-8.508c-1.563-4.438,0.515-9.332,4.798-11.301
			c-2.519,3.669-2.8,8.424-0.735,12.363c1.192,4.143-0.148,8.598-3.432,11.401c-1.088,1.504-1.252,2.499-1.767,4.282l25.988-19.828
			l-20.123,25.672c2.423-0.185,5.096-0.183,7.461,0.361c3.243,0.704,6.59-0.638,8.448-3.387c2.229-4.149,7.248-5.923,11.588-4.094
			c-4.408,0.621-8.116,3.625-9.638,7.81c-2.262,3.675-6.46,5.693-10.74,5.167c-1.545-0.173-3.381,0.805-4.332,1.099l32.577,3.453
			H135.301z"/>
		
			<path id="path26_10_" fill="#FFFF00" stroke="#000000" stroke-width="0.75" stroke-linecap="round" stroke-linejoin="round" stroke-miterlimit="3" d="
			M205.86,338.188c0-10.598-8.594-19.189-19.189-19.189c-10.598,0-19.19,8.592-19.19,19.189H205.86z"/>
	</g>
</g>
<g>
	<g>
		
			<path id="path21_12_" fill="#FFFF00" stroke="#000000" stroke-width="0.75" stroke-linecap="round" stroke-linejoin="round" stroke-miterlimit="3" d="
			M135.301,397.688l32.164-3.434c-0.95-0.294-2.374-1.291-3.918-1.118c-4.282,0.526-8.479-1.492-10.741-5.167
			c-1.521-4.185-5.229-7.188-9.638-7.81c4.34-1.829,9.36-0.056,11.588,4.094c1.859,2.749,5.204,4.091,8.448,3.387
			c2.366-0.544,4.727-0.694,7.149-0.51l-19.812-25.523l25.86,19.652c-0.513-1.783-0.549-2.603-1.638-4.106
			c-3.281-2.804-4.623-7.259-3.432-11.401c2.065-3.939,1.783-8.694-0.735-12.363c4.283,1.969,6.362,6.863,4.798,11.301
			c-0.778,3.223,0.489,6.592,3.199,8.508c2.649,1.452,2.935,4.122,4.243,5.611l4.038-32.498l4.038,32.498
			c1.308-1.489,1.593-4.159,4.242-5.611c2.709-1.916,3.977-5.285,3.199-8.508c-1.563-4.438,0.515-9.332,4.798-11.301
			c-2.519,3.669-2.8,8.424-0.735,12.363c1.192,4.143-0.148,8.598-3.432,11.401c-1.088,1.504-1.252,2.499-1.767,4.282l25.988-19.828
			l-20.123,25.672c2.423-0.185,5.096-0.183,7.461,0.361c3.243,0.704,6.59-0.638,8.448-3.387c2.229-4.149,7.248-5.923,11.588-4.094
			c-4.408,0.621-8.116,3.625-9.638,7.81c-2.262,3.675-6.46,5.693-10.74,5.167c-1.545-0.173-3.381,0.805-4.332,1.099l32.577,3.453
			H135.301z"/>
		
			<path id="path26_11_" fill="#FFFF00" stroke="#000000" stroke-width="0.75" stroke-linecap="round" stroke-linejoin="round" stroke-miterlimit="3" d="
			M205.86,397.688c0-10.598-8.594-19.189-19.189-19.189c-10.598,0-19.19,8.592-19.19,19.189H205.86z"/>
	</g>
</g>
<g>
	<g>
		
			<path id="path21_6_" fill="#FFFF00" stroke="#000000" stroke-width="0.75" stroke-linecap="round" stroke-linejoin="round" stroke-miterlimit="3" d="
			M253.037,208.188l32.163-3.434c-0.95-0.294-2.374-1.291-3.918-1.118c-4.282,0.526-8.479-1.492-10.74-5.167
			c-1.522-4.185-5.23-7.188-9.639-7.809c4.341-1.83,9.36-0.056,11.588,4.093c1.858,2.75,5.204,4.091,8.448,3.387
			c2.366-0.543,4.727-0.694,7.15-0.509l-19.813-25.523l25.859,19.652c-0.513-1.783-0.549-2.603-1.638-4.106
			c-3.281-2.804-4.623-7.258-3.431-11.401c2.064-3.939,1.783-8.695-0.735-12.364c4.282,1.968,6.36,6.864,4.798,11.301
			c-0.777,3.222,0.488,6.591,3.199,8.508c2.649,1.452,2.934,4.122,4.242,5.612l4.038-32.499l4.038,32.499
			c1.308-1.49,1.593-4.16,4.242-5.612c2.709-1.917,3.977-5.286,3.199-8.508c-1.563-4.437,0.516-9.333,4.798-11.301
			c-2.519,3.669-2.8,8.424-0.735,12.364c1.192,4.143-0.148,8.597-3.432,11.401c-1.088,1.504-1.252,2.499-1.767,4.282l25.988-19.828
			l-20.123,25.672c2.423-0.185,5.096-0.183,7.461,0.361c3.243,0.705,6.59-0.637,8.448-3.387c2.229-4.149,7.248-5.922,11.588-4.093
			c-4.408,0.621-8.115,3.624-9.637,7.809c-2.263,3.675-6.461,5.693-10.741,5.167c-1.545-0.173-3.38,0.804-4.332,1.099l32.577,3.453
			H253.037z"/>
		
			<path id="path26_5_" fill="#FFFF00" stroke="#000000" stroke-width="0.75" stroke-linecap="round" stroke-linejoin="round" stroke-miterlimit="3" d="
			M323.596,208.188c0-10.598-8.594-19.189-19.189-19.189c-10.598,0-19.189,8.592-19.189,19.189H323.596z"/>
	</g>
</g>
</svg>
